<?xml version="1.0" encoding="iso-8859-1"?>
<!-- Generator: Adobe Illustrator 18.1.1, SVG Export Plug-In . SVG Version: 6.00 Build 0)  -->
<svg version="1.1" id="Capa_1" xmlns="http://www.w3.org/2000/svg" xmlns:xlink="http://www.w3.org/1999/xlink" x="0px" y="0px"
	 viewBox="0 0 195.404 195.404" style="enable-background:new 0 0 195.404 195.404;" xml:space="preserve">
<g>
	<path style="fill:#010002;" d="M194.849,53.293c-0.501-0.784-1.278-1.335-2.187-1.528c-1.854-0.419-3.844,0.866-4.237,2.613
		c-0.336,1.285-1.41,4.753-3.912,9.144l-1.16,2.047l-53.561-53.554l2.058-1.16c5.164-2.906,9.008-3.804,9.18-3.84
		c1.89-0.444,3.074-2.344,2.645-4.237c-0.401-1.779-2.319-3.114-4.266-2.663c-0.512,0.125-51.271,13.693-41.991,87.381l0.276,2.183
		L95.5,89.5c-3.962-0.301-7.916-0.447-11.757-0.447c-59.574,0-82.31,37.138-83.244,38.72c-0.83,1.385-0.605,3.171,0.523,4.277
		c0.179,0.204,0.419,0.376,0.759,0.601c1.367,0.812,3.937,0.15,4.796-1.263c0.419-0.684,2.727-4.327,7.347-9.008l1.267-1.281
		l59.137,59.151l-1.288,1.27c-4.699,4.617-8.296,6.9-8.965,7.312c-1.689,1.009-2.258,3.207-1.267,4.878
		c0.15,0.247,0.329,0.472,0.555,0.698c0.612,0.598,1.578,0.97,2.57,0.97c0.648,0,1.242-0.161,1.714-0.437
		c1.782-1.059,43.605-26.63,38.265-95.029l-0.168-2.197l2.183,0.276c6.12,0.787,12.068,1.174,17.694,1.174l0,0
		c58.987,0,69.584-42.728,69.691-43.172C195.529,55.065,195.357,54.102,194.849,53.293z M93.478,148.426
		c-2.827,8.145-6.66,15.683-11.313,22.303l-3.643,4.252l-58.085-58.289l4.137-3.332c6.71-4.742,14.258-8.582,22.504-11.442
		l3.4-1.507l44.199,44.46L93.478,148.426z M97.486,132.829l-0.598,3.382L59.221,98.54l3.389-0.598
		c10.561-1.882,22.447-2.308,34.454-1.21l1.496,0.15l0.132,1.485C99.798,110.476,99.39,122.068,97.486,132.829z M136.12,91.58
		c-9.054,0.927-19.111,0.626-29.837-0.898l-1.331-0.2l-0.193-1.324c-1.535-10.78-1.861-20.847-0.963-29.916l0.626-6.163
		l37.943,38.079L136.12,91.58z M175.799,74.712c-6.281,6.088-14.101,10.654-23.091,13.535l-2.358,0.397l-43.984-43.623l0.691-2.219
		c2.895-9.201,7.44-17.017,13.528-23.273l2.459-2.602l55.39,54.577L175.799,74.712z"/>
</g>
<g>
</g>
<g>
</g>
<g>
</g>
<g>
</g>
<g>
</g>
<g>
</g>
<g>
</g>
<g>
</g>
<g>
</g>
<g>
</g>
<g>
</g>
<g>
</g>
<g>
</g>
<g>
</g>
<g>
</g>
</svg>
